<?xml version="1.0" encoding="UTF-8" standalone="no"?>
<svg
   version="1.0"
   width="512.000000pt"
   height="512.000000pt"
   viewBox="0 0 512.000000 512.000000"
   preserveAspectRatio="xMidYMid meet"
   id="svg3"
   sodipodi:docname="logo.svg"
   inkscape:version="1.3 (0e150ed6c4, 2023-07-21)"
   xmlns:inkscape="http://www.inkscape.org/namespaces/inkscape"
   xmlns:sodipodi="http://sodipodi.sourceforge.net/DTD/sodipodi-0.dtd"
   xmlns="http://www.w3.org/2000/svg"
   xmlns:svg="http://www.w3.org/2000/svg">
  <defs
     id="defs3" />
  <sodipodi:namedview
     id="namedview3"
     pagecolor="#ffffff"
     bordercolor="#000000"
     borderopacity="0.25"
     inkscape:showpageshadow="2"
     inkscape:pageopacity="0.0"
     inkscape:pagecheckerboard="0"
     inkscape:deskcolor="#d1d1d1"
     inkscape:document-units="pt"
     inkscape:zoom="1.2319336"
     inkscape:cx="341.33333"
     inkscape:cy="276.39477"
     inkscape:window-width="1920"
     inkscape:window-height="1014"
     inkscape:window-x="1920"
     inkscape:window-y="0"
     inkscape:window-maximized="1"
     inkscape:current-layer="svg3" />
  <g
     transform="matrix(0.12942323,0,0,-0.12964161,-66.439201,573.58111)"
     fill="#ffffff"
     stroke="none"
     id="g3">
    <path
       d="m 1870,4413 c 0,-11 81,-74 140,-107 25,-14 77,-31 117,-37 40,-6 73,-16 73,-20 0,-5 -4,-9 -8,-9 -4,0 -61,-6 -127,-14 -66,-8 -169,-17 -230,-21 -147,-9 -300,-30 -361,-51 -27,-9 -92,-37 -144,-62 -85,-41 -106,-57 -205,-156 -61,-61 -121,-126 -134,-145 l -25,-34 30,20 c 175,122 409,234 580,278 136,35 244,53 409,65 77,5 178,14 225,20 431,49 437,49 630,-17 175,-59 284,-115 314,-159 34,-52 55,-116 63,-186 7,-73 -6,-75 -50,-11 -17,26 -49,65 -70,88 l -39,40 7,-37 c 3,-20 2,-39 -3,-42 -5,-3 -47,13 -93,35 -209,102 -427,174 -589,194 l -55,6 55,-33 c 70,-43 152,-78 182,-78 13,0 32,-6 42,-13 17,-12 14,-16 -35,-39 -52,-24 -242,-90 -304,-105 -24,-6 -15,-9 40,-11 48,-2 99,4 162,19 132,32 135,20 19,-65 -178,-131 -223,-144 -523,-156 -286,-11 -420,-36 -577,-111 -62,-29 -48,-34 56,-20 45,6 113,11 152,10 h 71 l -50,-15 C 1359,3358 1122,3261 966,3168 884,3120 751,2991 667,2878 586,2770 520,2630 520,2568 c 0,-26 2,-48 6,-48 3,0 31,17 62,39 84,56 231,128 336,163 87,29 247,51 288,40 30,-7 21,-27 -19,-41 -75,-27 -210,-91 -316,-150 -60,-34 -111,-61 -113,-61 -3,0 -42,-25 -87,-55 -107,-71 -150,-114 -145,-148 3,-25 8,-23 153,75 203,135 264,171 402,233 320,142 435,175 780,223 34,5 67,6 73,2 16,-10 1,-15 -135,-45 -63,-14 -179,-48 -257,-74 -327,-111 -352,-124 -892,-490 l -108,-74 6,-50 c 7,-50 63,-278 71,-285 7,-7 155,48 225,83 88,44 158,101 214,173 36,48 61,68 125,101 78,40 366,141 501,176 159,40 422,130 675,230 62,25 124,45 137,44 26,0 31,5 -132,-127 -178,-145 -505,-340 -629,-376 -31,-9 -92,-16 -140,-16 -125,0 -330,-35 -358,-62 -24,-22 -53,-77 -53,-101 0,-12 6,-12 37,4 24,12 58,19 98,19 33,0 99,7 148,17 66,12 90,14 99,5 36,-36 -271,-183 -412,-197 -161,-17 -391,-82 -453,-129 -17,-14 -17,-16 8,-65 l 25,-51 h 128 c 287,-1 385,-8 507,-34 144,-31 281,-35 376,-11 95,24 257,106 316,159 65,58 87,61 77,9 -11,-61 -19,-76 -73,-135 -86,-94 -175,-123 -491,-163 -237,-30 -243,-32 -301,-60 -81,-41 -147,-133 -164,-228 l -7,-38 25,24 c 52,48 160,61 233,28 74,-34 153,-136 154,-199 0,-13 -18,-42 -41,-67 l -42,-45 h 64 c 35,0 114,7 174,16 61,8 173,18 251,21 156,6 157,6 196,-65 11,-21 29,-34 57,-43 52,-15 89,-1 135,52 52,61 113,51 146,-24 34,-77 36,-181 5,-262 -16,-41 75,57 163,175 2,3 53,8 114,11 118,7 137,15 117,46 -17,27 -4,71 25,84 28,13 67,-4 120,-54 41,-39 47,-77 19,-116 l -16,-24 39,7 c 80,15 146,67 180,141 20,42 24,66 24,153 0,69 -5,114 -15,139 -8,19 -15,43 -15,53 0,17 38,40 65,40 47,0 85,-139 61,-228 -7,-29 -9,-52 -5,-52 14,0 87,109 123,183 19,40 42,99 51,132 20,72 31,309 18,381 -16,83 12,116 55,65 11,-14 12,-8 8,34 -12,95 -107,377 -140,414 -15,17 -20,38 -21,94 -1,55 -10,96 -39,177 -60,166 -60,161 20,237 101,96 133,108 279,108 151,0 205,-16 323,-95 129,-86 128,-84 92,-226 -29,-115 -76,-232 -107,-266 -55,-61 86,13 155,81 98,96 198,266 253,431 44,127 61,238 61,385 0,295 -94,526 -271,666 -83,66 -80,65 -187,19 -60,-25 -105,-51 -121,-70 -13,-16 -61,-57 -106,-91 -100,-75 -137,-106 -137,-114 0,-12 79,36 180,109 58,42 112,76 120,76 17,0 97,-61 117,-90 13,-18 11,-21 -23,-35 -20,-8 -54,-20 -76,-27 -38,-11 -42,-11 -56,10 -14,21 -14,21 -51,2 -54,-28 -128,-100 -146,-142 -17,-42 -19,-62 -6,-54 5,4 44,13 88,21 43,8 132,31 197,50 131,39 164,42 172,20 4,-8 11,-12 17,-8 5,3 8,2 4,-3 -3,-5 10,-53 28,-107 19,-53 41,-136 50,-184 29,-168 14,-412 -35,-559 -33,-98 -46,-70 -26,58 39,260 31,383 -36,513 -60,117 -74,135 -109,135 -44,0 -340,-48 -369,-60 -19,-8 -69,-6 -175,4 -251,25 -633,40 -682,27 l -42,-11 31,-54 30,-53 212,-6 c 228,-7 318,-16 466,-49 98,-21 288,-83 304,-99 33,-31 -138,-6 -384,57 -52,13 -103,24 -113,24 -10,0 -47,-16 -81,-35 -86,-48 -130,-62 -269,-85 -185,-31 -498,-117 -677,-187 -52,-20 -86,-26 -170,-28 -58,-1 -140,-6 -182,-10 -50,-5 -78,-4 -78,3 0,12 98,75 205,132 44,23 100,54 123,68 24,14 59,30 78,37 27,9 -88,11 -543,10 l -578,-2 -166,-35 c -91,-20 -191,-48 -221,-62 -122,-58 -94,-16 77,113 315,238 576,368 910,453 114,29 133,31 365,35 l 245,5 70,-46 c 38,-25 74,-46 81,-46 7,0 15,-7 18,-15 5,-14 -16,-15 -192,-9 -205,6 -261,14 -282,39 -18,22 -78,19 -202,-10 -139,-31 -170,-48 -73,-41 39,4 90,9 115,12 25,2 52,0 60,-6 13,-9 11,-14 -11,-33 -14,-12 -35,-28 -45,-35 -17,-11 -15,-12 16,-8 19,2 82,11 140,21 121,19 395,25 572,11 109,-8 121,-7 185,15 82,28 136,61 268,163 106,82 171,146 181,178 5,17 12,19 42,13 37,-6 145,-46 194,-71 15,-8 28,-24 30,-36 3,-20 6,-17 22,17 38,86 41,118 22,202 -9,43 -33,134 -53,202 -19,68 -31,127 -26,132 14,14 85,-33 115,-76 33,-48 52,-150 42,-228 -9,-71 -40,-185 -59,-213 -17,-26 -20,-54 -6,-54 17,0 64,64 92,125 47,104 56,256 19,324 -5,11 -10,27 -10,36 0,14 3,14 28,1 89,-46 127,-183 82,-296 -25,-63 -12,-57 38,18 48,71 70,127 78,195 8,70 -18,173 -52,207 l -26,25 7,-65 6,-65 -108,109 c -111,112 -170,162 -179,154 -2,-3 0,-17 6,-32 5,-15 10,-37 10,-49 0,-20 -1,-20 -27,5 -24,22 -69,51 -198,129 -49,29 -281,106 -291,96 -2,-2 17,-22 41,-46 57,-55 74,-104 30,-88 -8,4 -19,7 -23,7 -4,1 -16,9 -27,19 -34,31 -107,64 -274,122 -96,33 -115,36 -83,13 18,-12 31,-44 19,-44 -2,0 -48,7 -103,15 -116,17 -299,20 -271,4 9,-5 17,-15 17,-21 0,-21 -253,-2 -365,28 -121,32 -165,39 -165,27 z m 688,-115 c -10,-32 -130,-65 -182,-52 -38,9 -26,16 67,40 100,26 120,28 115,12 z m 353,-23 c 24,-9 64,-28 89,-43 43,-26 44,-27 18,-30 -14,-2 -61,10 -105,27 -43,16 -86,32 -95,35 -10,3 -18,10 -18,16 0,15 61,12 111,-5 z m 403,-46 c 56,-49 59,-65 9,-44 -40,16 -73,48 -73,71 0,23 14,16 64,-27 z m -26,-254 c 43,-49 74,-135 97,-269 23,-131 11,-130 -58,4 -24,47 -59,126 -77,175 -18,50 -41,102 -51,116 -10,14 -16,29 -13,32 13,13 67,-18 102,-58 z m 123,15 c 56,-31 124,-280 105,-385 -4,-20 -12,-35 -18,-33 -14,5 -17,15 -53,168 -15,63 -36,139 -46,168 -19,52 -24,92 -13,92 3,0 14,-5 25,-10 z m -620,-218 c -5,-9 -28,-30 -50,-47 -124,-91 -118,-288 10,-326 48,-15 80,-6 123,32 58,50 73,137 41,228 -20,57 -19,61 8,61 48,0 90,-71 90,-150 0,-175 -177,-292 -336,-222 -88,39 -135,157 -103,264 22,76 93,150 162,171 55,16 68,14 55,-11 z M 1870,2723 c 0,-9 -53,-33 -165,-75 -44,-16 -93,-36 -110,-43 -16,-8 -55,-24 -85,-35 -107,-42 -417,-212 -614,-337 -32,-21 -69,-45 -82,-53 -26,-16 -38,-11 -28,13 10,28 234,200 350,270 130,78 228,124 379,179 178,65 355,105 355,81 z m 145,-152 c 37,-8 27,-15 -54,-36 -35,-9 -100,-30 -145,-46 -84,-30 -116,-36 -116,-19 0,6 4,10 9,10 5,0 16,6 23,13 8,6 26,23 40,36 41,36 169,58 243,42 z m 705,-19 c 0,-4 -19,-27 -41,-52 -137,-150 -228,-311 -260,-461 -30,-141 -93,-188 -187,-140 -20,10 -49,21 -64,25 -24,6 -28,3 -28,-17 0,-31 -81,-130 -151,-184 -45,-36 -73,-48 -155,-68 -149,-37 -194,-34 -194,17 0,36 39,74 89,88 215,58 213,56 261,223 18,64 40,123 49,131 9,8 52,31 95,52 62,31 104,62 195,148 125,118 143,131 275,200 83,44 116,55 116,38 z m 60,-97 c 0,-3 -7,-22 -15,-42 -8,-19 -15,-48 -15,-63 0,-19 -15,-43 -48,-79 -27,-28 -73,-85 -103,-127 -30,-41 -69,-92 -86,-112 -28,-32 -33,-34 -33,-16 -1,73 238,444 286,444 8,0 14,-2 14,-5 z m 300,-8 c 0,-11 -72,-246 -99,-321 -17,-48 -42,-133 -56,-187 -48,-188 -65,-189 -65,-4 0,97 5,138 25,213 27,103 40,131 96,213 46,68 66,89 85,89 8,0 14,-2 14,-3 z m -150,-34 c 0,-5 -18,-50 -41,-100 -39,-87 -59,-113 -59,-78 0,16 42,131 60,164 10,20 40,30 40,14 z m 193,-257 c -20,-102 -76,-246 -96,-246 -6,0 -6,25 -1,68 4,37 8,79 7,95 0,15 2,25 5,22 3,-3 15,25 27,62 50,160 89,159 58,-1 z m 135,68 c 34,-101 53,-225 59,-379 5,-139 3,-173 -15,-256 -25,-111 -62,-221 -78,-226 -16,-5 -24,183 -24,548 0,302 6,365 33,357 6,-3 18,-22 25,-44 z m -494,-166 c 21,-128 29,-163 46,-213 33,-95 36,-145 10,-177 -23,-30 -57,-36 -91,-17 -12,6 -18,17 -15,24 7,20 -33,45 -73,45 -19,0 -58,-11 -86,-25 -79,-37 -134,-49 -188,-41 -87,13 -151,97 -97,126 11,6 54,12 94,14 52,2 89,10 127,28 74,35 189,143 225,212 16,31 32,56 36,56 4,0 9,-15 12,-32 z m 260,-426 c 8,-141 -5,-211 -66,-356 -43,-101 -162,-296 -222,-363 -24,-28 -52,-29 -66,-4 -15,30 -12,67 11,121 28,66 22,81 -30,69 -68,-15 -107,-40 -136,-85 -41,-65 -47,-68 -153,-70 -54,-1 -116,-5 -140,-9 -68,-11 -91,24 -56,85 19,32 69,50 136,50 28,0 64,10 99,27 71,35 194,159 236,239 41,77 55,89 134,115 96,32 111,46 172,174 31,63 60,115 65,115 5,0 12,-49 16,-108 z m -809,-192 c 12,-19 -35,-97 -94,-157 -110,-112 -346,-212 -482,-204 -58,3 -88,70 -53,119 26,37 67,51 225,77 160,27 180,34 250,88 109,83 141,99 154,77 z"
       id="path1" />
    <path
       d="m 1745,3980 c -235,-28 -594,-205 -824,-406 -55,-48 -175,-193 -168,-201 3,-2 30,12 61,32 68,43 174,90 183,81 4,-4 -41,-55 -100,-114 -58,-59 -127,-134 -152,-167 -48,-63 -103,-168 -115,-220 -6,-29 -3,-26 59,35 115,114 293,275 371,334 78,61 330,229 461,308 195,118 417,213 629,268 47,13 88,26 93,30 8,7 -338,32 -403,29 -19,-1 -62,-5 -95,-9 z"
       id="path2" />
    <path
       d="m 2036,3134 c -60,-14 -139,-37 -175,-52 -62,-26 -211,-117 -211,-129 0,-12 92,10 240,57 182,59 321,89 443,98 48,4 88,12 88,17 1,18 -84,33 -181,33 -63,0 -131,-8 -204,-24 z"
       id="path3" />
  </g>
</svg>
